HIERARCHY
ROOT hip
{
  OFFSET 0.00112043 5.09927 -9.65472
  CHANNELS 6 Xposition Yposition Zposition Zrotation Xrotation Yrotation
  JOINT abdomen
  {
    OFFSET 0 -1.186 -1.5018
    CHANNELS 3 Zrotation Xrotation Yrotation
    JOINT abdomen2
    {
      OFFSET 0 9.964 0.2134
      CHANNELS 3 Zrotation Xrotation Yrotation
      JOINT chest
      {
        OFFSET 0 13.134 -3.2573
        CHANNELS 3 Zrotation Xrotation Yrotation
        JOINT neck
        {
          OFFSET 0 20.686 -1.6905
          CHANNELS 3 Zrotation Xrotation Yrotation
          JOINT head
          {
            OFFSET 0 7.238 -0.1237
            CHANNELS 3 Zrotation Xrotation Yrotation
            End Site
            {
              OFFSET 0 0 0
            }
          }
        }
        JOINT lCollar
        {
          OFFSET 1.7069 20.075 5.0056
          CHANNELS 3 Zrotation Xrotation Yrotation
          JOINT lShldr
          {
            OFFSET 13.6458 -0.047 -4.849
            CHANNELS 3 Zrotation Xrotation Yrotation
            JOINT lForeArm
            {
              OFFSET 28.3255 -0.9759 2.2888
              CHANNELS 3 Zrotation Xrotation Yrotation
              JOINT lHand
              {
                OFFSET 22.1583 -0.53 10.8316
                CHANNELS 3 Zrotation Xrotation Yrotation
                JOINT lThumb1
                {
                  OFFSET 0.786 0.112 2.5817
                  CHANNELS 3 Zrotation Xrotation Yrotation
                  JOINT lThumb2
                  {
                    OFFSET 0.3601 -0.878 4.2331
                    CHANNELS 3 Zrotation Xrotation Yrotation
                    JOINT lThumb2_End
                    {
                      OFFSET 1.8127 -1.216 2.2227
                      CHANNELS 3 Zrotation Xrotation Yrotation
                      End Site
                      {
                        OFFSET 0.0181 -0.0122 0.0222
                      }
                    }
                  }
                }
                JOINT lCarpal1
                {
                  OFFSET 0.9571 1.114 1.7695
                  CHANNELS 3 Zrotation Xrotation Yrotation
                  JOINT lIndex1
                  {
                    OFFSET 4.1246 0.487 4.1451
                    CHANNELS 3 Zrotation Xrotation Yrotation
                    JOINT lIndex2
                    {
                      OFFSET 3.4052 -1.454 2.7682
                      CHANNELS 3 Zrotation Xrotation Yrotation
                      JOINT lIndex2_End
                      {
                        OFFSET 1.4531 -1.795 1.2713
                        CHANNELS 3 Zrotation Xrotation Yrotation
                        End Site
                        {
                          OFFSET 0.0145 -0.0179 0.0127
                        }
                      }
                    }
                  }
                  JOINT lMid1
                  {
                    OFFSET 5.6954 0.21 2.1184
                    CHANNELS 3 Zrotation Xrotation Yrotation
                    JOINT lMid2
                    {
                      OFFSET 3.9766 -1.54 2.3863
                      CHANNELS 3 Zrotation Xrotation Yrotation
                      JOINT lMid2_End
                      {
                        OFFSET 1.4042 -1.926 1.125
                        CHANNELS 3 Zrotation Xrotation Yrotation
                        End Site
                        {
                          OFFSET 0.014 -0.0193 0.0113
                        }
                      }
                    }
                  }
                }
                JOINT lCarpal2
                {
                  OFFSET 2.0956 0.66 -0.3894
                  CHANNELS 3 Zrotation Xrotation Yrotation
                  JOINT lRing1
                  {
                    OFFSET 5.0395 -0.09 2.4971
                    CHANNELS 3 Zrotation Xrotation Yrotation
                    JOINT lRing2
                    {
                      OFFSET 3.7921 -1.552 1.4806
                      CHANNELS 3 Zrotation Xrotation Yrotation
                      JOINT lRing2_End
                      {
                        OFFSET 1.4655 -1.808 0.9609
                        CHANNELS 3 Zrotation Xrotation Yrotation
                        End Site
                        {
                          OFFSET 0.0147 -0.0181 0.0096
                        }
                      }
                    }
                  }
                  JOINT lPinky1
                  {
                    OFFSET 4.9141 -1.269 0.3591
                    CHANNELS 3 Zrotation Xrotation Yrotation
                    JOINT lPinky2
                    {
                      OFFSET 3.1477 -1.685 0.8462
                      CHANNELS 3 Zrotation Xrotation Yrotation
                      JOINT lPinky2_End
                      {
                        OFFSET 0.8055 -1.585 0.7955
                        CHANNELS 3 Zrotation Xrotation Yrotation
                        End Site
                        {
                          OFFSET 0.0081 -0.0158 0.008
                        }
                      }
                    }
                  }
                }
              }
            }
          }
        }
        JOINT rCollar
        {
          OFFSET -1.7069 20.075 5.0056
          CHANNELS 3 Zrotation Xrotation Yrotation
          JOINT rShldr
          {
            OFFSET -13.6458 -0.047 -4.849
            CHANNELS 3 Zrotation Xrotation Yrotation
            JOINT rForeArm
            {
              OFFSET -28.3255 -0.9759 2.2888
              CHANNELS 3 Zrotation Xrotation Yrotation
              JOINT rHand
              {
                OFFSET -22.1583 -0.53 10.8316
                CHANNELS 3 Zrotation Xrotation Yrotation
                JOINT rThumb1
                {
                  OFFSET -0.786 0.112 2.5817
                  CHANNELS 3 Zrotation Xrotation Yrotation
                  JOINT rThumb2
                  {
                    OFFSET -0.3601 -0.878 4.2331
                    CHANNELS 3 Zrotation Xrotation Yrotation
                    JOINT rThumb2_End
                    {
                      OFFSET -1.8127 -1.216 2.2227
                      CHANNELS 3 Zrotation Xrotation Yrotation
                      End Site
                      {
                        OFFSET -0.0181 -0.0122 0.0222
                      }
                    }
                  }
                }
                JOINT rCarpal1
                {
                  OFFSET -0.9571 1.114 1.7695
                  CHANNELS 3 Zrotation Xrotation Yrotation
                  JOINT rIndex1
                  {
                    OFFSET -4.1246 0.487 4.1451
                    CHANNELS 3 Zrotation Xrotation Yrotation
                    JOINT rIndex2
                    {
                      OFFSET -3.4052 -1.454 2.7682
                      CHANNELS 3 Zrotation Xrotation Yrotation
                      JOINT rIndex2_End
                      {
                        OFFSET -1.4531 -1.795 1.2713
                        CHANNELS 3 Zrotation Xrotation Yrotation
                        End Site
                        {
                          OFFSET -0.0145 -0.018 0.0127
                        }
                      }
                    }
                  }
                  JOINT rMid1
                  {
                    OFFSET -5.6954 0.21 2.1184
                    CHANNELS 3 Zrotation Xrotation Yrotation
                    JOINT rMid2
                    {
                      OFFSET -3.9766 -1.54 2.3863
                      CHANNELS 3 Zrotation Xrotation Yrotation
                      JOINT rMid2_End
                      {
                        OFFSET -1.4042 -1.926 1.125
                        CHANNELS 3 Zrotation Xrotation Yrotation
                        End Site
                        {
                          OFFSET -0.014 -0.0193 0.0113
                        }
                      }
                    }
                  }
                }
                JOINT rCarpal2
                {
                  OFFSET -2.0956 0.66 -0.3894
                  CHANNELS 3 Zrotation Xrotation Yrotation
                  JOINT rRing1
                  {
                    OFFSET -5.0395 -0.09 2.4971
                    CHANNELS 3 Zrotation Xrotation Yrotation
                    JOINT rRing2
                    {
                      OFFSET -3.7921 -1.552 1.4806
                      CHANNELS 3 Zrotation Xrotation Yrotation
                      JOINT rRing2_End
                      {
                        OFFSET -1.4655 -1.808 0.9609
                        CHANNELS 3 Zrotation Xrotation Yrotation
                        End Site
                        {
                          OFFSET -0.0147 -0.0181 0.0096
                        }
                      }
                    }
                  }
                  JOINT rPinky1
                  {
                    OFFSET -4.9141 -1.269 0.3592
                    CHANNELS 3 Zrotation Xrotation Yrotation
                    JOINT rPinky2
                    {
                      OFFSET -3.1477 -1.685 0.8462
                      CHANNELS 3 Zrotation Xrotation Yrotation
                      JOINT rPinky2_End
                      {
                        OFFSET -0.8055 -1.585 0.7955
                        CHANNELS 3 Zrotation Xrotation Yrotation
                        End Site
                        {
                          OFFSET -0.0081 -0.0158 0.008
                        }
                      }
                    }
                  }
                }
              }
            }
          }
        }
      }
    }
  }
  JOINT lThigh
  {
    OFFSET 8.367 -8.2066 0.5982
    CHANNELS 3 Zrotation Xrotation Yrotation
    JOINT lShin
    {
      OFFSET 2.1923 -43.463 -0.4932
      CHANNELS 3 Zrotation Xrotation Yrotation
      JOINT lFoot
      {
        OFFSET 0.7333 -45.8593 -2.6451
        CHANNELS 3 Zrotation Xrotation Yrotation
        End Site
        {
          OFFSET 2.6618 -4.2699 12.3931
        }
      }
    }
  }
  JOINT rThigh
  {
    OFFSET -8.367 -8.2066 0.5982
    CHANNELS 3 Zrotation Xrotation Yrotation
    JOINT rShin
    {
      OFFSET -2.1923 -43.463 -0.4931
      CHANNELS 3 Zrotation Xrotation Yrotation
      JOINT rFoot
      {
        OFFSET -0.7333 -45.8593 -2.6451
        CHANNELS 3 Zrotation Xrotation Yrotation
        End Site
        {
          OFFSET -2.6618 -4.2699 12.3931
        }
      }
    }
  }
}
MOTION
Frames:	4
Frame Time:	0.0333333
1.06086 33.562 6.63714 -6.11154e-015 7.35066 180 -0.57236 14.036 -0.0455223 -1.18915 28.0717 0.0617491 -1.18915 28.0717 0.0617497 -4.09887e-005 -0.147157 -3.5789e-007 20.447 -28.1886 12.8876 -10.8437 -10.0795 -16.2564 -23.5173 21.2387 -68.5302 10.745 -12.7752 18.9452 41.2619 -5.573 -4.45377 4.34611e-006 -8.58618e-007 3.03782e-006 -3.41512e-007 7.3843e-007 2.47581e-007 6.83024e-007 -1.47686e-006 -4.95162e-007 -9.54166e-015 -3.18055e-015 -0 4.34611e-006 -8.58618e-007 3.03782e-006 -3.41512e-007 7.3843e-007 2.47581e-007 6.83024e-007 -1.47686e-006 -4.95162e-007 4.34611e-006 -8.58618e-007 3.03782e-006 -3.41512e-007 7.3843e-007 2.47581e-007 6.83024e-007 -1.47686e-006 -4.95162e-007 -9.54166e-015 -3.18055e-015 -0 4.34611e-006 -8.58618e-007 3.03782e-006 -3.41512e-007 7.3843e-007 2.47581e-007 6.83024e-007 -1.47686e-006 -4.95162e-007 4.34611e-006 -8.58618e-007 3.03782e-006 -3.41512e-007 7.3843e-007 2.47581e-007 6.83024e-007 -1.47686e-006 -4.95162e-007 10.1439 -10.1199 15.1141 23.7311 21.9205 70.3135 -12.432 -12.2839 -19.89 -35.7232 -4.85356 4.91595 -9.54166e-015 3.18055e-015 3.18055e-015 3.82797e-007 -1.70316e-006 1.70651e-007 -1.07463e-006 2.33467e-007 3.07304e-007 -9.54166e-015 0 3.18055e-015 -1.05934e-030 9.54166e-015 6.36111e-015 3.82797e-007 -1.70316e-006 1.70651e-007 -1.07463e-006 2.33467e-007 3.07304e-007 -1.05934e-030 9.54166e-015 6.36111e-015 3.82797e-007 -1.70316e-006 1.70651e-007 -1.07463e-006 2.33467e-007 3.07304e-007 -9.54166e-015 0 3.18055e-015 -1.05934e-030 9.54166e-015 6.36111e-015 3.82797e-007 -1.70316e-006 1.70651e-007 -1.07463e-006 2.33467e-007 3.07304e-007 -1.05934e-030 9.54166e-015 6.36111e-015 3.82797e-007 -1.70316e-006 1.70651e-007 -1.07463e-006 2.33467e-007 3.07304e-007 105.96 -47.9056 121.977 163.412 71.1738 -160.618 4.93731 -7.02092 2.30385 -105.924 -47.8499 -121.983 -163.379 71.1696 160.585 -4.97994 -7.02739 -2.27828 
1.06085 33.8732 6.65427 -6.06787e-015 7.70111 180 -0.57436 14.262 -0.0407771 -1.19649 28.5236 0.0752873 -1.19649 28.5236 0.0752871 -7.1521e-005 -0.146027 4.52423e-007 20.315 -28.0597 12.7876 -10.8565 -10.5523 -16.3561 -23.5173 21.2387 -68.5302 10.745 -12.7752 18.9453 41.4434 -5.7119 -4.55491 1.67767e-006 -1.5982e-006 5.68531e-006 4.02375e-007 -1.73714e-006 6.18497e-006 2.01914e-006 -2.33659e-006 5.43764e-006 -1.59028e-015 0 -0 1.67767e-006 -1.5982e-006 5.68531e-006 4.02375e-007 -1.73714e-006 6.18497e-006 2.01914e-006 -2.33659e-006 5.43764e-006 1.67767e-006 -1.5982e-006 5.68531e-006 4.02375e-007 -1.73714e-006 6.18497e-006 2.01914e-006 -2.33659e-006 5.43764e-006 -1.59028e-015 0 -0 1.67767e-006 -1.5982e-006 5.68531e-006 4.02375e-007 -1.73714e-006 6.18497e-006 2.01914e-006 -2.33659e-006 5.43764e-006 1.67767e-006 -1.5982e-006 5.68531e-006 4.02375e-007 -1.73714e-006 6.18497e-006 2.01914e-006 -2.33659e-006 5.43764e-006 10.1179 -10.5948 15.1556 23.7311 21.9205 70.3135 -12.432 -12.2839 -19.89 -35.9103 -5.02569 4.97447 -3.18055e-015 2.54444e-014 6.36111e-015 -4.85034e-006 4.97562e-007 -3.20839e-006 9.54166e-015 -9.54166e-015 -3.18055e-015 6.36111e-015 -3.18055e-015 -6.36111e-015 -9.54166e-015 2.54444e-014 3.18055e-015 -4.85034e-006 4.97562e-007 -3.20839e-006 3.18055e-015 -9.54166e-015 -3.18055e-015 -9.54166e-015 2.54444e-014 3.18055e-015 -4.85034e-006 4.97562e-007 -3.20839e-006 3.18055e-015 -9.54166e-015 -3.18055e-015 6.36111e-015 -3.18055e-015 -6.36111e-015 -9.54166e-015 2.54444e-014 3.18055e-015 -4.85034e-006 4.97562e-007 -3.20839e-006 3.18055e-015 -9.54166e-015 -3.18055e-015 -9.54166e-015 2.54444e-014 3.18055e-015 -4.85034e-006 4.97562e-007 -3.20839e-006 3.18055e-015 -9.54166e-015 -3.18055e-015 104.952 -48.1319 120.856 163.215 71.4548 -160.462 4.83367 -7.17187 2.2381 -104.915 -48.0735 -120.865 -163.18 71.4503 160.427 -4.87828 -7.17866 -2.21138 
1.06086 34.1841 6.67131 -6.02414e-015 8.05153 180 -0.576388 14.4879 -0.0360095 -1.204 28.9755 0.0889678 -1.204 28.9754 0.0889676 -1.85461e-005 -0.14598 -6.60579e-007 20.1834 -27.9305 12.688 -10.8701 -11.0249 -16.4561 -23.5173 21.2387 -68.5302 10.745 -12.7752 18.9452 41.6247 -5.85112 -4.65565 1.59028e-015 -9.54166e-015 3.18055e-015 6.82857e-007 -1.47669e-006 -4.95544e-007 -7.95139e-015 3.18055e-015 -6.36111e-015 1.59028e-015 -3.18055e-015 3.18055e-015 -7.95139e-015 0 1.27222e-014 6.82857e-007 -1.47669e-006 -4.95544e-007 1.59028e-015 0 6.36111e-015 -7.95139e-015 0 1.27222e-014 6.82857e-007 -1.47669e-006 -4.95544e-007 1.59028e-015 0 6.36111e-015 1.59028e-015 -3.18055e-015 3.18055e-015 -7.95139e-015 0 1.27222e-014 6.82857e-007 -1.47669e-006 -4.95544e-007 1.59028e-015 0 6.36111e-015 -7.95139e-015 0 1.27222e-014 6.82857e-007 -1.47669e-006 -4.95544e-007 1.59028e-015 0 6.36111e-015 10.0923 -11.0697 15.197 23.7311 21.9205 70.3135 -12.432 -12.2839 -19.89 -36.0972 -5.19801 5.03244 -6.91052e-007 -1.47003e-006 4.77347e-007 -3.18055e-015 3.18055e-015 -0 1.55795e-006 -4.32215e-006 1.3989e-006 -3.18055e-015 3.18055e-015 -1.27222e-014 -6.91052e-007 -1.47003e-006 4.77347e-007 -9.54166e-015 6.36111e-015 3.18055e-015 1.55795e-006 -4.32215e-006 1.3989e-006 -6.91052e-007 -1.47003e-006 4.77347e-007 -9.54166e-015 6.36111e-015 3.18055e-015 1.55795e-006 -4.32215e-006 1.3989e-006 -3.18055e-015 3.18055e-015 -1.27222e-014 -6.91052e-007 -1.47003e-006 4.77347e-007 -9.54166e-015 6.36111e-015 3.18055e-015 1.55795e-006 -4.32215e-006 1.3989e-006 -6.91052e-007 -1.47003e-006 4.77347e-007 -9.54166e-015 6.36111e-015 3.18055e-015 1.55795e-006 -4.32215e-006 1.3989e-006 103.933 -48.3452 119.726 163.012 71.7355 -160.299 4.72978 -7.3225 2.17214 -103.896 -48.2842 -119.737 -162.974 71.7306 160.262 -4.77637 -7.32958 -2.14428 
1.06086 34.4947 6.68827 -5.98033e-015 8.40193 180 -0.578444 14.7139 -0.0312193 -1.21169 29.4272 0.102795 -1.21169 29.4272 0.102795 -2.53807e-006 -0.145669 6.74055e-007 20.0522 -27.8011 12.5888 -10.8846 -11.4975 -16.5563 -23.5173 21.2387 -68.5302 10.745 -12.7753 18.9452 41.8057 -5.99065 -4.75593 -3.18055e-015 6.36111e-015 9.54166e-015 -3.18055e-015 3.18055e-015 9.54166e-015 -3.53113e-031 3.18055e-015 6.36111e-015 -1.59028e-015 3.18055e-015 3.18055e-015 -6.36111e-015 0 1.59028e-014 -1.11319e-014 0 6.36111e-015 -1.59028e-015 0 3.18055e-015 -6.36111e-015 0 1.59028e-014 -1.11319e-014 0 6.36111e-015 -1.59028e-015 0 3.18055e-015 -1.59028e-015 3.18055e-015 3.18055e-015 -6.36111e-015 0 1.59028e-014 -1.11319e-014 0 6.36111e-015 -1.59028e-015 0 3.18055e-015 -6.36111e-015 0 1.59028e-014 -1.11319e-014 0 6.36111e-015 -1.59028e-015 0 3.18055e-015 10.067 -11.5446 15.2382 23.7311 21.9205 70.3135 -12.432 -12.2839 -19.89 -36.284 -5.37052 5.08986 -6.90682e-007 -1.47018e-006 4.77043e-007 -1.38136e-006 -2.94036e-006 9.54086e-007 -6.90682e-007 -1.47018e-006 4.77043e-007 6.36111e-015 3.18055e-015 -3.18055e-015 -6.90682e-007 -1.47018e-006 4.77043e-007 -1.38136e-006 -2.94036e-006 9.54086e-007 -6.90682e-007 -1.47018e-006 4.77043e-007 -6.90682e-007 -1.47018e-006 4.77043e-007 -1.38136e-006 -2.94036e-006 9.54086e-007 -6.90682e-007 -1.47018e-006 4.77043e-007 6.36111e-015 3.18055e-015 -3.18055e-015 -6.90682e-007 -1.47018e-006 4.77043e-007 -1.38136e-006 -2.94036e-006 9.54086e-007 -6.90682e-007 -1.47018e-006 4.77043e-007 -6.90682e-007 -1.47018e-006 4.77043e-007 -1.38136e-006 -2.94036e-006 9.54086e-007 -6.90682e-007 -1.47018e-006 4.77043e-007 102.905 -48.5453 118.587 162.802 72.0158 -160.13 4.62558 -7.47282 2.10602 -102.868 -48.4819 -118.599 -162.763 72.0108 160.09 -4.67418 -7.48022 -2.07699 
